<svg width="25" height="18" viewBox="0 0 25 18" fill="none" xmlns="http://www.w3.org/2000/svg">
<path d="M24.4544 2.71027C24.1656 1.64835 23.3151 0.808326 22.2401 0.523035C20.2985 0 12.484 0 12.484 0C12.484 0 4.66945 0.0158495 2.72786 0.538884C1.65276 0.824176 0.802311 1.6642 0.513479 2.72612C-3.82572e-08 4.64391 0 8.65385 0 8.65385C0 8.65385 -3.82572e-08 12.6638 0.529525 14.5974C0.818357 15.6593 1.66881 16.4994 2.7439 16.7847C4.68549 17.3077 12.5 17.3077 12.5 17.3077C12.5 17.3077 20.3145 17.3077 22.2561 16.7847C23.3312 16.4994 24.1816 15.6593 24.4705 14.5974C25 12.6796 25 8.65385 25 8.65385C25 8.65385 24.984 4.64391 24.4544 2.71027Z" fill="#FF0000"/>
<path d="M9.61548 12.4999L16.3462 8.65377L9.61548 4.80762V12.4999Z" fill="white"/>
</svg>
